<svg width="90" height="36" viewBox="0 0 90 36" fill="none" xmlns="http://www.w3.org/2000/svg">
<path d="M15.5557 34.4762C15.8018 35.2762 16.7042 36 17.5655 36H19.2472C20.6007 36 21.5441 34.8571 21.257 33.6381L13.3409 1.52381C13.1358 0.723809 12.1924 0.0380952 11.3311 0.0380952H10.0596C9.19823 0.0380952 8.25486 0.723809 8.04978 1.52381L2.79971 22.4L0.0516299 33.6762C-0.235483 34.9333 0.707888 36 2.06142 36H3.74308C4.60442 36 5.50678 35.2762 5.75287 34.4762L7.76266 26.1714H13.628L15.5557 34.4762ZM10.6748 12.3429C11.7822 16.8762 11.6592 18.3238 12.2744 20.8762H9.07518L10.6748 12.3429ZM33.6438 20.6095C40.6576 20.6095 43.7748 17.219 43.7748 10.3238C43.7748 3.46667 40.6576 0.0380952 33.6438 0.0380952H27.4504C26.302 0.0380952 25.3996 0.87619 25.3996 1.94286V34.0571C25.3996 35.1238 26.302 36 27.4504 36H29.05C30.1575 36 31.0598 35.1238 31.0598 34.0571V20.6095H33.6438ZM33.6438 5.33333C36.7611 5.33333 38.0326 6.74286 38.0326 10.3238C38.0326 13.7905 36.7611 15.3524 33.6438 15.3524H31.0598V5.33333H33.6438ZM47.7124 25.5238C47.7124 29.7524 48.9839 32.1905 50.7476 33.8667C52.6753 35.5429 55.0543 36 57.1461 36C59.2789 36 61.6579 35.5429 63.5856 33.8667C65.3493 32.1905 66.5388 29.7524 66.5388 25.5238V10.4381C66.5388 3.65714 63.4626 0.0380952 57.1461 0.0380952C50.8706 0.0380952 47.7124 3.73333 47.7124 10.4381V25.5238ZM53.4546 10.4381C53.4546 6.97143 54.6031 5.33333 57.1461 5.33333C59.6071 5.33333 60.7965 6.85714 60.7965 10.4381V25.5238C60.7965 29.1429 59.566 30.7048 57.1461 30.7048C54.6851 30.7048 53.4546 29.0667 53.4546 25.5238V10.4381ZM71.0506 25.5238C71.0506 32.5333 74.2088 35.9238 80.5253 35.9238C86.5957 35.9238 90 32.7238 90 26.7429C90 21.6 86.1445 18.8571 82.33 16.1524H82.412C79.5819 14.1333 76.7928 12.0381 76.7928 9.33333C76.7928 6.55238 78.1053 5.33333 80.5253 5.33333C83.0273 5.33333 84.2577 6.93333 84.2577 10.4381V11.2C84.2577 12.2667 85.1601 13.1048 86.3086 13.1048H87.9082C89.0566 13.1048 90 12.2667 90 11.2V10.4381C90 3.65714 86.7187 0 80.5253 0C74.4139 0 71.0506 3.46667 71.0506 9.48571C71.0506 14.7429 74.9881 17.6381 78.8026 20.419V20.3429C81.5917 22.4 84.2577 24.3429 84.2577 26.8571C84.2577 29.6762 82.9042 30.6667 80.5253 30.6667C79.705 30.6667 78.7206 30.5524 78.1053 29.9429C77.285 29.3333 76.7928 28.0762 76.7928 25.5238V24.8381C76.7928 23.7714 75.8084 22.9333 74.701 22.9333H73.1014C71.9529 22.9333 71.0506 23.7714 71.0506 24.8381V25.5238Z" fill="#F7F7F7"/>
</svg>
